<svg width="120" height="120" viewBox="0 0 120 120" fill="none" xmlns="http://www.w3.org/2000/svg">
<path d="M52.2071 12.292L66.3587 14.2671C73.2749 15.2323 78.4217 21.1475 78.4214 28.1308C78.4211 33.1756 81.1356 37.8302 85.5264 40.3143L95.2486 45.8146C110.617 54.5089 116.369 73.9304 108.463 89.7182C100.143 106.332 79.8225 113.28 63.2052 104.968L54.1845 100.456L34.6321 92.8368C18.574 86.5794 8 70.8752 8 53.641C8 36.2852 18.8919 20.558 35.2247 14.6875L37.7138 13.7929C42.352 12.1258 47.3258 11.6107 52.2071 12.292Z" fill="#CCF6FF"/>
<path d="M112.148 87.2375L89.5908 64.6802" stroke="#0D0205" stroke-width="2" stroke-linecap="round" stroke-linejoin="round"/>
<path d="M68.5625 73.0126C84.275 73.0126 97.0125 60.2751 97.0125 44.5626C97.0125 28.85 84.275 16.1125 68.5625 16.1125C52.85 16.1125 40.1125 28.85 40.1125 44.5626C40.1125 60.2751 52.85 73.0126 68.5625 73.0126Z" stroke="#0D0205" stroke-width="2" stroke-linecap="round" stroke-linejoin="round"/>
</svg>
